<svg height="512pt" viewBox="0 -48 512 512" width="512pt" xmlns="http://www.w3.org/2000/svg"><path d="m456.835938 0h-401.671876c-30.417968 0-55.164062 24.746094-55.164062 55.164062v305.269532c0 30.417968 24.746094 55.167968 55.164062 55.167968h401.671876c30.417968 0 55.164062-24.75 55.164062-55.167968v-305.269532c0-30.417968-24.746094-55.164062-55.164062-55.164062zm-109.558594 239.179688-120.941406 60.472656c-7.160157 3.582031-14.320313 5.398437-21.273438 5.398437-21.410156 0-36.363281-16.867187-36.363281-41.015625v-112.46875c0-24.148437 14.953125-41.015625 36.363281-41.015625 6.953125 0 14.113281 1.8125 21.273438 5.394531l120.945312 60.476563c14.6875 7.34375 23.109375 18.777344 23.109375 31.378906.003906 12.597657-8.421875 24.035157-23.113281 31.378907zm0 0"/><path d="m333.863281 203.253906-120.945312-60.476562c-3.683594-1.84375-6.304688-2.230469-7.855469-2.230469-5.257812 0-6.363281 5.992187-6.363281 11.019531v112.464844c0 5.027344 1.105469 11.019531 6.363281 11.019531 1.550781 0 4.171875-.386719 7.859375-2.230469l120.941406-60.472656c3.734375-1.867187 5.570313-3.621094 6.273438-4.546875-.703125-.925781-2.539063-2.679687-6.273438-4.546875zm0 0"/></svg>